<svg width="137" height="55" viewBox="0 0 137 55" fill="none" xmlns="http://www.w3.org/2000/svg">
<path d="M4.07812 14.4062C3.64062 14.4062 3.22396 14.3229 2.82812 14.1562C2.44271 13.9792 2.10417 13.75 1.8125 13.4688C1.52083 13.1771 1.29167 12.8385 1.125 12.4531C0.958333 12.0573 0.875 11.6406 0.875 11.2031V4.79688C0.875 4.35938 0.958333 3.94792 1.125 3.5625C1.29167 3.16667 1.52083 2.82812 1.8125 2.54688C2.10417 2.25521 2.44271 2.02604 2.82812 1.85938C3.22396 1.68229 3.64062 1.59375 4.07812 1.59375H14.9531C15.3906 1.59375 15.8021 1.68229 16.1875 1.85938C16.5833 2.02604 16.9271 2.25521 17.2188 2.54688C17.5104 2.82812 17.7396 3.16667 17.9062 3.5625C18.0729 3.94792 18.1562 4.35938 18.1562 4.79688V7.6875H14.9531V4.79688H4.07812V11.2031H14.9531C15.3906 11.2031 15.8021 11.2865 16.1875 11.4531C16.5833 11.6198 16.9271 11.849 17.2188 12.1406C17.5104 12.4323 17.7396 12.776 17.9062 13.1719C18.0729 13.5573 18.1562 13.9688 18.1562 14.4062V20.7969C18.1562 21.2344 18.0729 21.651 17.9062 22.0469C17.7396 22.4323 17.5104 22.7708 17.2188 23.0625C16.9271 23.3542 16.5833 23.5833 16.1875 23.75C15.8021 23.9167 15.3906 24 14.9531 24H3.76562C3.32812 24 2.91146 23.9167 2.51562 23.75C2.13021 23.5833 1.79167 23.3542 1.5 23.0625C1.20833 22.7708 0.979167 22.4323 0.8125 22.0469C0.645833 21.651 0.5625 21.2344 0.5625 20.7969V17.9219H3.76562V20.7969H14.9531V14.4062H4.07812ZM26.8594 7.35938V24H23.7812V7.35938H26.8594ZM23.625 0.953125H27.0156V4.15625H23.625V0.953125ZM32.1562 10.4375C32.1562 10.0104 32.2344 9.60938 32.3906 9.23438C32.5573 8.85938 32.776 8.53646 33.0469 8.26562C33.3281 7.98438 33.6562 7.76562 34.0312 7.60938C34.4062 7.44271 34.8021 7.35938 35.2188 7.35938H40.7344C41.1406 7.35938 41.526 7.4375 41.8906 7.59375C42.2552 7.73958 42.5729 7.94792 42.8438 8.21875C43.125 8.47917 43.349 8.79167 43.5156 9.15625C43.6927 9.51042 43.7865 9.89062 43.7969 10.2969V7.35938H46.875V27.6406C46.875 28.0677 46.7917 28.4688 46.625 28.8438C46.4688 29.2188 46.25 29.5417 45.9688 29.8125C45.6979 30.0938 45.375 30.3125 45 30.4688C44.625 30.6354 44.224 30.7188 43.7969 30.7188H34.0781V27.6406H43.7969V23.3594H35.2188C34.8021 23.3594 34.4062 23.2812 34.0312 23.125C33.6562 22.9583 33.3281 22.7396 33.0469 22.4688C32.776 22.1875 32.5573 21.8594 32.3906 21.4844C32.2344 21.1094 32.1562 20.7083 32.1562 20.2812V10.4375ZM43.7969 20.2812V10.4375H35.2188V20.2812H43.7969ZM65.1875 10.4375V24H62.1094V10.4375H55.0625V24H52V7.35938H55.0625V10.2969C55.0833 9.89062 55.1771 9.51042 55.3438 9.15625C55.5104 8.79167 55.7292 8.47917 56 8.21875C56.2812 7.94792 56.6042 7.73958 56.9688 7.59375C57.3333 7.4375 57.724 7.35938 58.1406 7.35938H62.1094C62.5156 7.35938 62.901 7.4375 63.2656 7.59375C63.6302 7.73958 63.9531 7.94792 64.2344 8.21875C64.5156 8.47917 64.7396 8.79167 64.9062 9.15625C65.0833 9.51042 65.1771 9.89062 65.1875 10.2969C65.2083 9.89062 65.2969 9.51042 65.4531 9.15625C65.6198 8.79167 65.8385 8.47917 66.1094 8.21875C66.3906 7.94792 66.7135 7.73958 67.0781 7.59375C67.4427 7.4375 67.8333 7.35938 68.25 7.35938H72.2188C72.6458 7.35938 73.0469 7.44271 73.4219 7.60938C73.7969 7.76562 74.1198 7.98438 74.3906 8.26562C74.6719 8.53646 74.8906 8.85938 75.0469 9.23438C75.2135 9.60938 75.2969 10.0104 75.2969 10.4375V24H72.2188V10.4375H65.1875ZM80.4375 16.7344C80.4375 16.3073 80.5156 15.9115 80.6719 15.5469C80.8385 15.1719 81.0573 14.8438 81.3281 14.5625C81.6094 14.2812 81.9375 14.0625 82.3125 13.9062C82.6875 13.7396 83.0833 13.6562 83.5 13.6562H91.4375V10.4375H81.3906V7.35938H91.4375C91.8646 7.35938 92.2656 7.44271 92.6406 7.60938C93.0156 7.76562 93.3385 7.98438 93.6094 8.26562C93.8906 8.53646 94.1094 8.85938 94.2656 9.23438C94.4323 9.60938 94.5156 10.0104 94.5156 10.4375V24H91.4375V21.1875C91.4062 21.5729 91.3021 21.9375 91.125 22.2812C90.9479 22.625 90.7188 22.9271 90.4375 23.1875C90.1667 23.4375 89.8542 23.6354 89.5 23.7812C89.1458 23.9271 88.7708 24 88.375 24H83.5C83.0833 24 82.6875 23.9219 82.3125 23.7656C81.9375 23.599 81.6094 23.3802 81.3281 23.1094C81.0573 22.8281 80.8385 22.5 80.6719 22.125C80.5156 21.75 80.4375 21.349 80.4375 20.9219V16.7344ZM83.5 20.9219H91.4375V16.7344H83.5V20.9219ZM0.875 55V32.5938H13.1406C16.7656 32.5938 18.5781 34.4115 18.5781 38.0469V41.2344C18.5781 44.8698 16.7656 46.6875 13.1406 46.6875H4.07812V55H0.875ZM4.07812 43.4844H12.9688C13.8229 43.4844 14.4375 43.2969 14.8125 42.9219C15.1875 42.5469 15.375 41.9323 15.375 41.0781V38.2031C15.375 37.349 15.1875 36.7344 14.8125 36.3594C14.4375 35.9844 13.8229 35.7969 12.9688 35.7969H4.07812V43.4844ZM25.8125 41.4375V55H22.75V38.3594H25.8125V41.2969C25.8333 40.8906 25.9271 40.5104 26.0938 40.1562C26.2604 39.7917 26.4792 39.4792 26.75 39.2188C27.0312 38.9479 27.3542 38.7396 27.7188 38.5938C28.0833 38.4375 28.474 38.3594 28.8906 38.3594H32.1562C32.5833 38.3594 32.9792 38.4427 33.3438 38.6094C33.7188 38.7656 34.0469 38.9844 34.3281 39.2656C34.6094 39.5365 34.8281 39.8594 34.9844 40.2344C35.151 40.6094 35.2344 41.0104 35.2344 41.4375V44.25H32.1562V41.4375H25.8125ZM53.4531 51.9219C53.4531 52.349 53.3698 52.75 53.2031 53.125C53.0469 53.5 52.8281 53.8281 52.5469 54.1094C52.276 54.3802 51.9531 54.599 51.5781 54.7656C51.2135 54.9219 50.8177 55 50.3906 55H42.125C41.7083 55 41.3125 54.9219 40.9375 54.7656C40.5625 54.599 40.2344 54.3802 39.9531 54.1094C39.6823 53.8281 39.4635 53.5 39.2969 53.125C39.1406 52.75 39.0625 52.349 39.0625 51.9219V41.4375C39.0625 41.0104 39.1406 40.6094 39.2969 40.2344C39.4635 39.8594 39.6823 39.5365 39.9531 39.2656C40.2344 38.9844 40.5625 38.7656 40.9375 38.6094C41.3125 38.4427 41.7083 38.3594 42.125 38.3594H50.3906C50.8177 38.3594 51.2135 38.4427 51.5781 38.6094C51.9531 38.7656 52.276 38.9844 52.5469 39.2656C52.8281 39.5365 53.0469 39.8594 53.2031 40.2344C53.3698 40.6094 53.4531 41.0104 53.4531 41.4375V51.9219ZM42.125 41.4375V51.9219H50.3906V41.4375H42.125ZM57.625 38.3594H61.6875V33.2344H64.7656V38.3594H70.2344V41.4375H64.7656V51.9219H70.2344V55H64.7656C64.349 55 63.9531 54.9219 63.5781 54.7656C63.2031 54.599 62.875 54.3802 62.5938 54.1094C62.3125 53.8281 62.0885 53.5 61.9219 53.125C61.7656 52.75 61.6875 52.349 61.6875 51.9219V41.4375H57.625V38.3594ZM89.7656 51.9219C89.7656 52.349 89.6823 52.75 89.5156 53.125C89.3594 53.5 89.1406 53.8281 88.8594 54.1094C88.5885 54.3802 88.2656 54.599 87.8906 54.7656C87.526 54.9219 87.1302 55 86.7031 55H78.4375C78.0208 55 77.625 54.9219 77.25 54.7656C76.875 54.599 76.5469 54.3802 76.2656 54.1094C75.9948 53.8281 75.776 53.5 75.6094 53.125C75.4531 52.75 75.375 52.349 75.375 51.9219V41.4375C75.375 41.0104 75.4531 40.6094 75.6094 40.2344C75.776 39.8594 75.9948 39.5365 76.2656 39.2656C76.5469 38.9844 76.875 38.7656 77.25 38.6094C77.625 38.4427 78.0208 38.3594 78.4375 38.3594H86.7031C87.1302 38.3594 87.526 38.4427 87.8906 38.6094C88.2656 38.7656 88.5885 38.9844 88.8594 39.2656C89.1406 39.5365 89.3594 39.8594 89.5156 40.2344C89.6823 40.6094 89.7656 41.0104 89.7656 41.4375V51.9219ZM78.4375 41.4375V51.9219H86.7031V41.4375H78.4375ZM97.9688 41.4375V51.9219H105.906V49.1094H108.984V51.9219C108.984 52.349 108.901 52.75 108.734 53.125C108.578 53.5 108.359 53.8281 108.078 54.1094C107.807 54.3802 107.484 54.599 107.109 54.7656C106.734 54.9219 106.333 55 105.906 55H97.9688C97.5521 55 97.1562 54.9219 96.7812 54.7656C96.4062 54.599 96.0781 54.3802 95.7969 54.1094C95.526 53.8281 95.3073 53.5 95.1406 53.125C94.9844 52.75 94.9062 52.349 94.9062 51.9219V41.4375C94.9062 41.0104 94.9844 40.6094 95.1406 40.2344C95.3073 39.8594 95.526 39.5365 95.7969 39.2656C96.0781 38.9844 96.4062 38.7656 96.7812 38.6094C97.1562 38.4427 97.5521 38.3594 97.9688 38.3594H105.906C106.333 38.3594 106.734 38.4427 107.109 38.6094C107.484 38.7656 107.807 38.9844 108.078 39.2656C108.359 39.5365 108.578 39.8594 108.734 40.2344C108.901 40.6094 108.984 41.0104 108.984 41.4375V44.25H105.906V41.4375H97.9688ZM128.516 51.9219C128.516 52.349 128.432 52.75 128.266 53.125C128.109 53.5 127.891 53.8281 127.609 54.1094C127.339 54.3802 127.016 54.599 126.641 54.7656C126.276 54.9219 125.88 55 125.453 55H117.188C116.771 55 116.375 54.9219 116 54.7656C115.625 54.599 115.297 54.3802 115.016 54.1094C114.745 53.8281 114.526 53.5 114.359 53.125C114.203 52.75 114.125 52.349 114.125 51.9219V41.4375C114.125 41.0104 114.203 40.6094 114.359 40.2344C114.526 39.8594 114.745 39.5365 115.016 39.2656C115.297 38.9844 115.625 38.7656 116 38.6094C116.375 38.4427 116.771 38.3594 117.188 38.3594H125.453C125.88 38.3594 126.276 38.4427 126.641 38.6094C127.016 38.7656 127.339 38.9844 127.609 39.2656C127.891 39.5365 128.109 39.8594 128.266 40.2344C128.432 40.6094 128.516 41.0104 128.516 41.4375V51.9219ZM117.188 41.4375V51.9219H125.453V41.4375H117.188ZM136.719 31.9531V55H133.656V31.9531H136.719Z" fill="#E5E5E5" fill-opacity="0.76"/>
</svg>
