<svg width="277" height="34" viewBox="0 0 277 34" fill="none" xmlns="http://www.w3.org/2000/svg">
<path d="M4.83789 15.207C4.3457 15.207 3.87695 15.1133 3.43164 14.9258C2.99805 14.7266 2.61719 14.4688 2.28906 14.1523C1.96094 13.8242 1.70312 13.4434 1.51562 13.0098C1.32812 12.5645 1.23438 12.0957 1.23438 11.6035V4.39648C1.23438 3.9043 1.32812 3.44141 1.51562 3.00781C1.70312 2.5625 1.96094 2.18164 2.28906 1.86523C2.61719 1.53711 2.99805 1.2793 3.43164 1.0918C3.87695 0.892578 4.3457 0.792969 4.83789 0.792969H17.0723C17.5645 0.792969 18.0273 0.892578 18.4609 1.0918C18.9062 1.2793 19.293 1.53711 19.6211 1.86523C19.9492 2.18164 20.207 2.5625 20.3945 3.00781C20.582 3.44141 20.6758 3.9043 20.6758 4.39648V7.64844H17.0723V4.39648H4.83789V11.6035H17.0723C17.5645 11.6035 18.0273 11.6973 18.4609 11.8848C18.9062 12.0723 19.293 12.3301 19.6211 12.6582C19.9492 12.9863 20.207 13.373 20.3945 13.8184C20.582 14.252 20.6758 14.7148 20.6758 15.207V22.3965C20.6758 22.8887 20.582 23.3574 20.3945 23.8027C20.207 24.2363 19.9492 24.6172 19.6211 24.9453C19.293 25.2734 18.9062 25.5312 18.4609 25.7188C18.0273 25.9062 17.5645 26 17.0723 26H4.48633C3.99414 26 3.52539 25.9062 3.08008 25.7188C2.64648 25.5312 2.26562 25.2734 1.9375 24.9453C1.60938 24.6172 1.35156 24.2363 1.16406 23.8027C0.976562 23.3574 0.882812 22.8887 0.882812 22.3965V19.1621H4.48633V22.3965H17.0723V15.207H4.83789ZM30.4668 7.2793V26H27.0039V7.2793H30.4668ZM26.8281 0.0722656H30.6426V3.67578H26.8281V0.0722656ZM36.4258 10.7422C36.4258 10.2617 36.5137 9.81055 36.6895 9.38867C36.877 8.9668 37.123 8.60352 37.4277 8.29883C37.7441 7.98242 38.1133 7.73633 38.5352 7.56055C38.957 7.37305 39.4023 7.2793 39.8711 7.2793H46.0762C46.5332 7.2793 46.9668 7.36719 47.377 7.54297C47.7871 7.70703 48.1445 7.94141 48.4492 8.24609C48.7656 8.53906 49.0176 8.89062 49.2051 9.30078C49.4043 9.69922 49.5098 10.127 49.5215 10.584V7.2793H52.9844V30.0957C52.9844 30.5762 52.8906 31.0273 52.7031 31.4492C52.5273 31.8711 52.2812 32.2344 51.9648 32.5391C51.6602 32.8555 51.2969 33.1016 50.875 33.2773C50.4531 33.4648 50.002 33.5586 49.5215 33.5586H38.5879V30.0957H49.5215V25.2793H39.8711C39.4023 25.2793 38.957 25.1914 38.5352 25.0156C38.1133 24.8281 37.7441 24.582 37.4277 24.2773C37.123 23.9609 36.877 23.5918 36.6895 23.1699C36.5137 22.748 36.4258 22.2969 36.4258 21.8164V10.7422ZM49.5215 21.8164V10.7422H39.8711V21.8164H49.5215ZM73.5859 10.7422V26H70.123V10.7422H62.1953V26H58.75V7.2793H62.1953V10.584C62.2188 10.127 62.3242 9.69922 62.5117 9.30078C62.6992 8.89062 62.9453 8.53906 63.25 8.24609C63.5664 7.94141 63.9297 7.70703 64.3398 7.54297C64.75 7.36719 65.1895 7.2793 65.6582 7.2793H70.123C70.5801 7.2793 71.0137 7.36719 71.4238 7.54297C71.834 7.70703 72.1973 7.94141 72.5137 8.24609C72.8301 8.53906 73.082 8.89062 73.2695 9.30078C73.4688 9.69922 73.5742 10.127 73.5859 10.584C73.6094 10.127 73.709 9.69922 73.8848 9.30078C74.0723 8.89062 74.3184 8.53906 74.623 8.24609C74.9395 7.94141 75.3027 7.70703 75.7129 7.54297C76.123 7.36719 76.5625 7.2793 77.0312 7.2793H81.4961C81.9766 7.2793 82.4277 7.37305 82.8496 7.56055C83.2715 7.73633 83.6348 7.98242 83.9395 8.29883C84.2559 8.60352 84.502 8.9668 84.6777 9.38867C84.8652 9.81055 84.959 10.2617 84.959 10.7422V26H81.4961V10.7422H73.5859ZM90.7422 17.8262C90.7422 17.3457 90.8301 16.9004 91.0059 16.4902C91.1934 16.0684 91.4395 15.6992 91.7441 15.3828C92.0605 15.0664 92.4297 14.8203 92.8516 14.6445C93.2734 14.457 93.7188 14.3633 94.1875 14.3633H103.117V10.7422H91.8145V7.2793H103.117C103.598 7.2793 104.049 7.37305 104.471 7.56055C104.893 7.73633 105.256 7.98242 105.561 8.29883C105.877 8.60352 106.123 8.9668 106.299 9.38867C106.486 9.81055 106.58 10.2617 106.58 10.7422V26H103.117V22.8359C103.082 23.2695 102.965 23.6797 102.766 24.0664C102.566 24.4531 102.309 24.793 101.992 25.0859C101.688 25.3672 101.336 25.5898 100.938 25.7539C100.539 25.918 100.117 26 99.6719 26H94.1875C93.7188 26 93.2734 25.9121 92.8516 25.7363C92.4297 25.5488 92.0605 25.3027 91.7441 24.998C91.4395 24.6816 91.1934 24.3125 91.0059 23.8906C90.8301 23.4688 90.7422 23.0176 90.7422 22.5371V17.8262ZM94.1875 22.5371H103.117V17.8262H94.1875V22.5371ZM123.508 26V0.792969H137.307C141.385 0.792969 143.424 2.83789 143.424 6.92773V10.5137C143.424 14.6035 141.385 16.6484 137.307 16.6484H127.111V26H123.508ZM127.111 13.0449H137.113C138.074 13.0449 138.766 12.834 139.188 12.4121C139.609 11.9902 139.82 11.2988 139.82 10.3379V7.10352C139.82 6.14258 139.609 5.45117 139.188 5.0293C138.766 4.60742 138.074 4.39648 137.113 4.39648H127.111V13.0449ZM151.562 10.7422V26H148.117V7.2793H151.562V10.584C151.586 10.127 151.691 9.69922 151.879 9.30078C152.066 8.89062 152.312 8.53906 152.617 8.24609C152.934 7.94141 153.297 7.70703 153.707 7.54297C154.117 7.36719 154.557 7.2793 155.025 7.2793H158.699C159.18 7.2793 159.625 7.37305 160.035 7.56055C160.457 7.73633 160.826 7.98242 161.143 8.29883C161.459 8.60352 161.705 8.9668 161.881 9.38867C162.068 9.81055 162.162 10.2617 162.162 10.7422V13.9062H158.699V10.7422H151.562ZM182.658 22.5371C182.658 23.0176 182.564 23.4688 182.377 23.8906C182.201 24.3125 181.955 24.6816 181.639 24.998C181.334 25.3027 180.971 25.5488 180.549 25.7363C180.139 25.9121 179.693 26 179.213 26H169.914C169.445 26 169 25.9121 168.578 25.7363C168.156 25.5488 167.787 25.3027 167.471 24.998C167.166 24.6816 166.92 24.3125 166.732 23.8906C166.557 23.4688 166.469 23.0176 166.469 22.5371V10.7422C166.469 10.2617 166.557 9.81055 166.732 9.38867C166.92 8.9668 167.166 8.60352 167.471 8.29883C167.787 7.98242 168.156 7.73633 168.578 7.56055C169 7.37305 169.445 7.2793 169.914 7.2793H179.213C179.693 7.2793 180.139 7.37305 180.549 7.56055C180.971 7.73633 181.334 7.98242 181.639 8.29883C181.955 8.60352 182.201 8.9668 182.377 9.38867C182.564 9.81055 182.658 10.2617 182.658 10.7422V22.5371ZM169.914 10.7422V22.5371H179.213V10.7422H169.914ZM187.352 7.2793H191.922V1.51367H195.385V7.2793H201.537V10.7422H195.385V22.5371H201.537V26H195.385C194.916 26 194.471 25.9121 194.049 25.7363C193.627 25.5488 193.258 25.3027 192.941 24.998C192.625 24.6816 192.373 24.3125 192.186 23.8906C192.01 23.4688 191.922 23.0176 191.922 22.5371V10.7422H187.352V7.2793ZM223.51 22.5371C223.51 23.0176 223.416 23.4688 223.229 23.8906C223.053 24.3125 222.807 24.6816 222.49 24.998C222.186 25.3027 221.822 25.5488 221.4 25.7363C220.99 25.9121 220.545 26 220.064 26H210.766C210.297 26 209.852 25.9121 209.43 25.7363C209.008 25.5488 208.639 25.3027 208.322 24.998C208.018 24.6816 207.771 24.3125 207.584 23.8906C207.408 23.4688 207.32 23.0176 207.32 22.5371V10.7422C207.32 10.2617 207.408 9.81055 207.584 9.38867C207.771 8.9668 208.018 8.60352 208.322 8.29883C208.639 7.98242 209.008 7.73633 209.43 7.56055C209.852 7.37305 210.297 7.2793 210.766 7.2793H220.064C220.545 7.2793 220.99 7.37305 221.4 7.56055C221.822 7.73633 222.186 7.98242 222.49 8.29883C222.807 8.60352 223.053 8.9668 223.229 9.38867C223.416 9.81055 223.51 10.2617 223.51 10.7422V22.5371ZM210.766 10.7422V22.5371H220.064V10.7422H210.766ZM232.738 10.7422V22.5371H241.668V19.373H245.131V22.5371C245.131 23.0176 245.037 23.4688 244.85 23.8906C244.674 24.3125 244.428 24.6816 244.111 24.998C243.807 25.3027 243.443 25.5488 243.021 25.7363C242.6 25.9121 242.148 26 241.668 26H232.738C232.27 26 231.824 25.9121 231.402 25.7363C230.98 25.5488 230.611 25.3027 230.295 24.998C229.99 24.6816 229.744 24.3125 229.557 23.8906C229.381 23.4688 229.293 23.0176 229.293 22.5371V10.7422C229.293 10.2617 229.381 9.81055 229.557 9.38867C229.744 8.9668 229.99 8.60352 230.295 8.29883C230.611 7.98242 230.98 7.73633 231.402 7.56055C231.824 7.37305 232.27 7.2793 232.738 7.2793H241.668C242.148 7.2793 242.6 7.37305 243.021 7.56055C243.443 7.73633 243.807 7.98242 244.111 8.29883C244.428 8.60352 244.674 8.9668 244.85 9.38867C245.037 9.81055 245.131 10.2617 245.131 10.7422V13.9062H241.668V10.7422H232.738ZM267.104 22.5371C267.104 23.0176 267.01 23.4688 266.822 23.8906C266.646 24.3125 266.4 24.6816 266.084 24.998C265.779 25.3027 265.416 25.5488 264.994 25.7363C264.584 25.9121 264.139 26 263.658 26H254.359C253.891 26 253.445 25.9121 253.023 25.7363C252.602 25.5488 252.232 25.3027 251.916 24.998C251.611 24.6816 251.365 24.3125 251.178 23.8906C251.002 23.4688 250.914 23.0176 250.914 22.5371V10.7422C250.914 10.2617 251.002 9.81055 251.178 9.38867C251.365 8.9668 251.611 8.60352 251.916 8.29883C252.232 7.98242 252.602 7.73633 253.023 7.56055C253.445 7.37305 253.891 7.2793 254.359 7.2793H263.658C264.139 7.2793 264.584 7.37305 264.994 7.56055C265.416 7.73633 265.779 7.98242 266.084 8.29883C266.4 8.60352 266.646 8.9668 266.822 9.38867C267.01 9.81055 267.104 10.2617 267.104 10.7422V22.5371ZM254.359 10.7422V22.5371H263.658V10.7422H254.359ZM276.332 0.0722656V26H272.887V0.0722656H276.332Z" fill="url(#paint0_linear)"/>
<defs>
<linearGradient id="paint0_linear" x1="143" y1="-1" x2="143" y2="42" gradientUnits="userSpaceOnUse">
<stop offset="0.135417" stop-color="white"/>
<stop offset="0.84375" stop-color="#D0D0D0" stop-opacity="0"/>
</linearGradient>
</defs>
</svg>
