<svg width="184" height="24" viewBox="0 0 184 24" fill="none" xmlns="http://www.w3.org/2000/svg">
<path d="M2.82031 10.8047C2.49219 10.8047 2.17969 10.7422 1.88281 10.6172C1.59375 10.4844 1.33984 10.3125 1.12109 10.1016C0.902344 9.88281 0.730469 9.62891 0.605469 9.33984C0.480469 9.04297 0.417969 8.73047 0.417969 8.40234V3.59766C0.417969 3.26953 0.480469 2.96094 0.605469 2.67188C0.730469 2.375 0.902344 2.12109 1.12109 1.91016C1.33984 1.69141 1.59375 1.51953 1.88281 1.39453C2.17969 1.26172 2.49219 1.19531 2.82031 1.19531H10.9766C11.3047 1.19531 11.6133 1.26172 11.9023 1.39453C12.1992 1.51953 12.457 1.69141 12.6758 1.91016C12.8945 2.12109 13.0664 2.375 13.1914 2.67188C13.3164 2.96094 13.3789 3.26953 13.3789 3.59766V5.76562H10.9766V3.59766H2.82031V8.40234H10.9766C11.3047 8.40234 11.6133 8.46484 11.9023 8.58984C12.1992 8.71484 12.457 8.88672 12.6758 9.10547C12.8945 9.32422 13.0664 9.58203 13.1914 9.87891C13.3164 10.168 13.3789 10.4766 13.3789 10.8047V15.5977C13.3789 15.9258 13.3164 16.2383 13.1914 16.5352C13.0664 16.8242 12.8945 17.0781 12.6758 17.2969C12.457 17.5156 12.1992 17.6875 11.9023 17.8125C11.6133 17.9375 11.3047 18 10.9766 18H2.58594C2.25781 18 1.94531 17.9375 1.64844 17.8125C1.35938 17.6875 1.10547 17.5156 0.886719 17.2969C0.667969 17.0781 0.496094 16.8242 0.371094 16.5352C0.246094 16.2383 0.183594 15.9258 0.183594 15.5977V13.4414H2.58594V15.5977H10.9766V10.8047H2.82031ZM19.9062 5.51953V18H17.5977V5.51953H19.9062ZM17.4805 0.714844H20.0234V3.11719H17.4805V0.714844ZM23.8789 7.82812C23.8789 7.50781 23.9375 7.20703 24.0547 6.92578C24.1797 6.64453 24.3438 6.40234 24.5469 6.19922C24.7578 5.98828 25.0039 5.82422 25.2852 5.70703C25.5664 5.58203 25.8633 5.51953 26.1758 5.51953H30.3125C30.6172 5.51953 30.9062 5.57812 31.1797 5.69531C31.4531 5.80469 31.6914 5.96094 31.8945 6.16406C32.1055 6.35938 32.2734 6.59375 32.3984 6.86719C32.5312 7.13281 32.6016 7.41797 32.6094 7.72266V5.51953H34.918V20.7305C34.918 21.0508 34.8555 21.3516 34.7305 21.6328C34.6133 21.9141 34.4492 22.1562 34.2383 22.3594C34.0352 22.5703 33.793 22.7344 33.5117 22.8516C33.2305 22.9766 32.9297 23.0391 32.6094 23.0391H25.3203V20.7305H32.6094V17.5195H26.1758C25.8633 17.5195 25.5664 17.4609 25.2852 17.3438C25.0039 17.2188 24.7578 17.0547 24.5469 16.8516C24.3438 16.6406 24.1797 16.3945 24.0547 16.1133C23.9375 15.832 23.8789 15.5312 23.8789 15.2109V7.82812ZM32.6094 15.2109V7.82812H26.1758V15.2109H32.6094ZM48.6523 7.82812V18H46.3438V7.82812H41.0586V18H38.7617V5.51953H41.0586V7.72266C41.0742 7.41797 41.1445 7.13281 41.2695 6.86719C41.3945 6.59375 41.5586 6.35938 41.7617 6.16406C41.9727 5.96094 42.2148 5.80469 42.4883 5.69531C42.7617 5.57812 43.0547 5.51953 43.3672 5.51953H46.3438C46.6484 5.51953 46.9375 5.57812 47.2109 5.69531C47.4844 5.80469 47.7266 5.96094 47.9375 6.16406C48.1484 6.35938 48.3164 6.59375 48.4414 6.86719C48.5742 7.13281 48.6445 7.41797 48.6523 7.72266C48.668 7.41797 48.7344 7.13281 48.8516 6.86719C48.9766 6.59375 49.1406 6.35938 49.3438 6.16406C49.5547 5.96094 49.7969 5.80469 50.0703 5.69531C50.3438 5.57812 50.6367 5.51953 50.9492 5.51953H53.9258C54.2461 5.51953 54.5469 5.58203 54.8281 5.70703C55.1094 5.82422 55.3516 5.98828 55.5547 6.19922C55.7656 6.40234 55.9297 6.64453 56.0469 6.92578C56.1719 7.20703 56.2344 7.50781 56.2344 7.82812V18H53.9258V7.82812H48.6523ZM60.0898 12.5508C60.0898 12.2305 60.1484 11.9336 60.2656 11.6602C60.3906 11.3789 60.5547 11.1328 60.7578 10.9219C60.9688 10.7109 61.2148 10.5469 61.4961 10.4297C61.7773 10.3047 62.0742 10.2422 62.3867 10.2422H68.3398V7.82812H60.8047V5.51953H68.3398C68.6602 5.51953 68.9609 5.58203 69.2422 5.70703C69.5234 5.82422 69.7656 5.98828 69.9688 6.19922C70.1797 6.40234 70.3438 6.64453 70.4609 6.92578C70.5859 7.20703 70.6484 7.50781 70.6484 7.82812V18H68.3398V15.8906C68.3164 16.1797 68.2383 16.4531 68.1055 16.7109C67.9727 16.9688 67.8008 17.1953 67.5898 17.3906C67.3867 17.5781 67.1523 17.7266 66.8867 17.8359C66.6211 17.9453 66.3398 18 66.043 18H62.3867C62.0742 18 61.7773 17.9414 61.4961 17.8242C61.2148 17.6992 60.9688 17.5352 60.7578 17.332C60.5547 17.1211 60.3906 16.875 60.2656 16.5938C60.1484 16.3125 60.0898 16.0117 60.0898 15.6914V12.5508ZM62.3867 15.6914H68.3398V12.5508H62.3867V15.6914ZM81.9336 18V1.19531H91.1328C93.8516 1.19531 95.2109 2.55859 95.2109 5.28516V7.67578C95.2109 10.4023 93.8516 11.7656 91.1328 11.7656H84.3359V18H81.9336ZM84.3359 9.36328H91.0039C91.6445 9.36328 92.1055 9.22266 92.3867 8.94141C92.668 8.66016 92.8086 8.19922 92.8086 7.55859V5.40234C92.8086 4.76172 92.668 4.30078 92.3867 4.01953C92.1055 3.73828 91.6445 3.59766 91.0039 3.59766H84.3359V9.36328ZM100.637 7.82812V18H98.3398V5.51953H100.637V7.72266C100.652 7.41797 100.723 7.13281 100.848 6.86719C100.973 6.59375 101.137 6.35938 101.34 6.16406C101.551 5.96094 101.793 5.80469 102.066 5.69531C102.34 5.57812 102.633 5.51953 102.945 5.51953H105.395C105.715 5.51953 106.012 5.58203 106.285 5.70703C106.566 5.82422 106.812 5.98828 107.023 6.19922C107.234 6.40234 107.398 6.64453 107.516 6.92578C107.641 7.20703 107.703 7.50781 107.703 7.82812V9.9375H105.395V7.82812H100.637ZM121.367 15.6914C121.367 16.0117 121.305 16.3125 121.18 16.5938C121.062 16.875 120.898 17.1211 120.688 17.332C120.484 17.5352 120.242 17.6992 119.961 17.8242C119.688 17.9414 119.391 18 119.07 18H112.871C112.559 18 112.262 17.9414 111.98 17.8242C111.699 17.6992 111.453 17.5352 111.242 17.332C111.039 17.1211 110.875 16.875 110.75 16.5938C110.633 16.3125 110.574 16.0117 110.574 15.6914V7.82812C110.574 7.50781 110.633 7.20703 110.75 6.92578C110.875 6.64453 111.039 6.40234 111.242 6.19922C111.453 5.98828 111.699 5.82422 111.98 5.70703C112.262 5.58203 112.559 5.51953 112.871 5.51953H119.07C119.391 5.51953 119.688 5.58203 119.961 5.70703C120.242 5.82422 120.484 5.98828 120.688 6.19922C120.898 6.40234 121.062 6.64453 121.18 6.92578C121.305 7.20703 121.367 7.50781 121.367 7.82812V15.6914ZM112.871 7.82812V15.6914H119.07V7.82812H112.871ZM124.496 5.51953H127.543V1.67578H129.852V5.51953H133.953V7.82812H129.852V15.6914H133.953V18H129.852C129.539 18 129.242 17.9414 128.961 17.8242C128.68 17.6992 128.434 17.5352 128.223 17.332C128.012 17.1211 127.844 16.875 127.719 16.5938C127.602 16.3125 127.543 16.0117 127.543 15.6914V7.82812H124.496V5.51953ZM148.602 15.6914C148.602 16.0117 148.539 16.3125 148.414 16.5938C148.297 16.875 148.133 17.1211 147.922 17.332C147.719 17.5352 147.477 17.6992 147.195 17.8242C146.922 17.9414 146.625 18 146.305 18H140.105C139.793 18 139.496 17.9414 139.215 17.8242C138.934 17.6992 138.688 17.5352 138.477 17.332C138.273 17.1211 138.109 16.875 137.984 16.5938C137.867 16.3125 137.809 16.0117 137.809 15.6914V7.82812C137.809 7.50781 137.867 7.20703 137.984 6.92578C138.109 6.64453 138.273 6.40234 138.477 6.19922C138.688 5.98828 138.934 5.82422 139.215 5.70703C139.496 5.58203 139.793 5.51953 140.105 5.51953H146.305C146.625 5.51953 146.922 5.58203 147.195 5.70703C147.477 5.82422 147.719 5.98828 147.922 6.19922C148.133 6.40234 148.297 6.64453 148.414 6.92578C148.539 7.20703 148.602 7.50781 148.602 7.82812V15.6914ZM140.105 7.82812V15.6914H146.305V7.82812H140.105ZM154.754 7.82812V15.6914H160.707V13.582H163.016V15.6914C163.016 16.0117 162.953 16.3125 162.828 16.5938C162.711 16.875 162.547 17.1211 162.336 17.332C162.133 17.5352 161.891 17.6992 161.609 17.8242C161.328 17.9414 161.027 18 160.707 18H154.754C154.441 18 154.145 17.9414 153.863 17.8242C153.582 17.6992 153.336 17.5352 153.125 17.332C152.922 17.1211 152.758 16.875 152.633 16.5938C152.516 16.3125 152.457 16.0117 152.457 15.6914V7.82812C152.457 7.50781 152.516 7.20703 152.633 6.92578C152.758 6.64453 152.922 6.40234 153.125 6.19922C153.336 5.98828 153.582 5.82422 153.863 5.70703C154.145 5.58203 154.441 5.51953 154.754 5.51953H160.707C161.027 5.51953 161.328 5.58203 161.609 5.70703C161.891 5.82422 162.133 5.98828 162.336 6.19922C162.547 6.40234 162.711 6.64453 162.828 6.92578C162.953 7.20703 163.016 7.50781 163.016 7.82812V9.9375H160.707V7.82812H154.754ZM177.664 15.6914C177.664 16.0117 177.602 16.3125 177.477 16.5938C177.359 16.875 177.195 17.1211 176.984 17.332C176.781 17.5352 176.539 17.6992 176.258 17.8242C175.984 17.9414 175.688 18 175.367 18H169.168C168.855 18 168.559 17.9414 168.277 17.8242C167.996 17.6992 167.75 17.5352 167.539 17.332C167.336 17.1211 167.172 16.875 167.047 16.5938C166.93 16.3125 166.871 16.0117 166.871 15.6914V7.82812C166.871 7.50781 166.93 7.20703 167.047 6.92578C167.172 6.64453 167.336 6.40234 167.539 6.19922C167.75 5.98828 167.996 5.82422 168.277 5.70703C168.559 5.58203 168.855 5.51953 169.168 5.51953H175.367C175.688 5.51953 175.984 5.58203 176.258 5.70703C176.539 5.82422 176.781 5.98828 176.984 6.19922C177.195 6.40234 177.359 6.64453 177.477 6.92578C177.602 7.20703 177.664 7.50781 177.664 7.82812V15.6914ZM169.168 7.82812V15.6914H175.367V7.82812H169.168ZM183.816 0.714844V18H181.52V0.714844H183.816Z" fill="white"/>
</svg>
